<?xml version="1.0" encoding="UTF-8" standalone="no"?>
<!DOCTYPE svg PUBLIC "-//W3C//DTD SVG 1.1//EN" "http://www.w3.org/Graphics/SVG/1.1/DTD/svg11.dtd">
<svg xmlns="http://www.w3.org/2000/svg" version="1.1" viewBox="0 0 1145 915" width="1145.0pt" height="915.0pt">
<path d="M 0.00 0.00 L 1145.00 0.00 L 1145.00 915.00 L 0.00 915.00 L 0.00 0.00 Z" fill="#fdfeff" />
<path d="M 482.07 104.87 C 488.06 131.18 505.04 152.68 522.47 172.51 C 533.94 185.40 545.90 197.75 557.53 210.48 C 578.89 233.72 599.68 259.23 612.78 288.17 C 622.57 309.43 627.95 332.59 628.34 356.00 C 628.81 381.05 623.86 406.43 615.80 430.09 C 610.27 400.20 601.24 370.96 589.00 343.14 C 578.38 318.99 565.13 296.03 548.67 275.37 C 535.31 258.88 519.71 243.35 501.93 231.65 C 514.72 243.95 526.03 257.31 536.13 271.90 C 567.24 316.74 586.63 369.50 596.32 423.00 C 597.06 426.41 598.88 429.63 600.08 432.92 C 610.53 459.98 616.60 488.97 617.27 518.00 C 617.43 540.29 614.33 562.30 606.17 583.14 C 595.34 611.48 575.11 636.03 550.24 653.26 C 576.90 623.26 593.12 583.94 596.30 544.00 C 597.56 525.10 596.74 506.24 592.13 487.81 C 582.58 448.57 558.42 413.84 525.78 390.23 C 518.04 384.80 510.41 378.98 503.37 372.65 C 479.69 351.76 461.12 325.35 450.52 295.53 C 433.43 247.53 435.83 193.19 456.72 146.74 C 463.49 131.96 471.73 117.45 482.07 104.87 Z" fill="#6da245" />
<path d="M 550.10 175.74 C 554.40 175.42 558.71 175.39 563.00 174.99 C 572.75 174.15 582.28 175.04 591.99 175.50 C 639.58 178.80 686.05 195.49 724.95 223.09 C 753.62 243.37 778.22 269.43 796.77 299.25 C 817.42 332.40 830.55 370.17 834.75 409.01 C 840.29 458.60 831.53 509.63 809.37 554.37 C 790.57 592.53 762.42 626.00 728.01 651.02 C 694.74 675.35 655.70 691.68 615.00 698.18 C 581.55 703.57 547.02 702.53 513.98 695.02 C 473.51 685.92 435.42 666.96 403.61 640.36 C 379.30 620.10 358.71 595.44 343.09 567.92 C 323.66 533.77 312.07 495.22 309.53 456.00 C 306.29 409.63 315.63 362.32 336.50 320.76 C 355.26 283.04 383.26 250.08 417.29 225.27 C 418.55 224.41 419.85 223.64 421.16 222.86 C 420.95 238.12 421.77 253.17 424.54 268.20 C 385.15 302.45 358.21 350.38 350.06 401.99 C 345.12 432.76 346.53 464.65 354.40 494.83 C 362.90 527.58 378.93 558.33 400.95 584.02 C 424.69 611.98 455.43 634.00 489.54 647.49 C 523.76 661.08 561.40 666.06 597.98 661.88 C 635.62 657.71 672.08 643.83 702.93 621.88 C 732.93 600.67 757.63 571.99 774.15 539.18 C 794.34 499.26 802.06 453.31 796.23 408.98 C 791.36 370.67 776.28 333.80 753.03 302.97 C 729.42 271.44 697.42 246.31 661.19 230.85 C 637.01 220.61 610.79 214.22 584.51 213.26 C 573.25 200.55 561.71 188.12 550.10 175.74 Z" fill="#6da245" />
<path d="M 734.36 298.04 C 755.13 328.40 761.65 367.57 752.24 403.11 C 746.79 424.59 735.37 444.04 719.39 459.37 C 699.26 478.56 672.78 491.48 645.90 498.00 C 650.58 478.81 657.52 460.02 666.38 442.36 C 678.37 418.77 694.57 395.87 715.08 378.94 C 697.99 388.73 683.50 403.07 671.76 418.77 C 653.53 443.39 641.40 471.14 633.20 500.55 C 628.79 482.52 626.68 464.48 629.49 446.00 C 632.34 426.40 640.83 408.46 652.77 392.79 C 668.95 371.36 688.62 355.96 707.42 337.42 C 719.01 325.78 729.26 313.99 734.36 298.04 Z" fill="#6da245" />
<path d="M 430.87 316.06 C 437.01 336.14 450.28 351.60 464.60 366.39 C 477.90 379.55 492.42 392.06 506.30 404.72 C 529.38 425.90 550.72 447.42 565.70 475.30 C 574.34 491.36 580.15 508.91 582.61 526.99 C 586.10 551.56 583.55 576.10 577.83 600.11 C 567.73 564.50 552.42 529.93 531.72 499.19 C 513.09 471.62 488.88 446.29 459.66 429.93 C 484.77 450.48 504.98 475.70 521.46 503.54 C 538.55 532.59 551.39 564.19 560.00 596.76 C 531.28 590.16 503.28 578.71 478.78 562.23 C 454.76 546.00 434.54 524.70 421.11 498.90 C 407.27 472.30 400.53 441.95 401.27 412.00 C 401.85 378.14 412.35 344.40 430.87 316.06 Z" fill="#6da245" />
</svg>