<?xml version="1.0" encoding="UTF-8" standalone="no"?>
<!DOCTYPE svg PUBLIC "-//W3C//DTD SVG 1.1//EN" "http://www.w3.org/Graphics/SVG/1.1/DTD/svg11.dtd">
<svg xmlns="http://www.w3.org/2000/svg" version="1.1" viewBox="0 0 1212 865" width="1212.0pt" height="865.0pt">
<path d="M 0.00 0.00 L 1212.00 0.00 L 1212.00 865.00 L 0.00 865.00 L 0.00 0.00 Z" fill="#ffffff" />
<path d="M 410.00 68.72 C 443.66 68.79 477.34 68.83 511.00 68.86 C 516.68 68.81 522.32 68.80 527.99 69.16 C 622.50 69.30 716.54 69.57 811.02 69.83 C 817.62 70.07 823.94 72.69 828.61 77.40 C 833.61 82.23 836.39 89.05 836.43 95.99 C 836.45 278.33 836.42 460.67 836.44 643.01 C 836.58 652.19 831.84 661.17 823.91 665.89 C 819.72 668.52 814.98 669.78 810.03 669.73 C 707.29 669.56 604.77 669.08 502.00 669.13 C 497.00 669.15 492.01 668.74 487.00 668.81 C 459.99 668.92 433.00 668.63 405.99 668.73 C 401.20 668.84 396.48 667.97 392.23 665.68 C 383.52 661.18 378.01 651.82 378.20 642.02 C 378.21 462.35 378.21 282.67 378.20 103.00 C 378.28 97.50 377.72 92.48 379.39 87.18 C 381.80 79.20 388.12 72.78 396.02 70.14 C 400.66 68.45 405.16 68.72 410.00 68.72 Z" fill="#02394c" />
<path d="M 404.20 77.51 C 409.35 76.69 414.79 77.14 420.00 77.06 C 499.90 77.07 580.12 77.09 660.00 77.03 C 708.69 77.17 757.30 76.75 806.02 77.13 C 812.60 77.33 818.07 79.82 822.84 84.26 C 819.97 88.54 816.82 92.61 813.70 96.71 C 801.70 112.69 789.72 128.71 777.66 144.64 C 775.54 147.38 773.65 150.82 770.87 152.93 C 766.09 153.92 760.88 153.20 756.00 153.35 C 642.20 153.46 528.35 153.24 414.55 153.45 C 414.54 190.13 414.53 226.81 414.55 263.50 C 501.02 263.54 587.53 263.49 674.00 263.51 C 678.54 263.45 683.07 263.46 687.60 263.72 C 686.54 265.59 685.48 267.45 684.23 269.21 C 667.65 291.10 651.36 313.22 634.70 335.05 L 634.56 335.24 C 632.48 332.45 630.81 330.55 627.03 330.57 C 612.71 330.45 598.33 330.61 584.00 330.50 C 581.18 330.63 577.80 330.41 575.82 332.81 C 573.76 335.16 573.81 338.05 573.71 341.00 C 573.77 354.67 573.69 368.36 573.74 382.02 C 573.76 385.95 574.81 389.78 578.99 390.99 C 583.30 391.72 587.86 391.21 592.22 391.36 C 589.51 395.42 586.44 399.20 583.88 403.36 L 583.22 403.38 C 580.44 403.67 577.78 403.49 575.81 405.81 C 573.47 408.42 573.79 412.18 573.67 415.43 L 573.66 416.61 C 568.80 422.70 564.30 429.07 559.41 435.14 C 559.46 428.09 559.41 421.05 559.48 414.00 C 559.39 410.94 559.59 408.07 557.26 405.73 C 554.96 403.30 552.09 403.56 549.00 403.44 C 535.33 403.49 521.67 403.50 508.00 403.43 C 505.21 403.47 502.71 403.49 500.62 405.61 C 498.34 407.69 498.66 410.18 498.55 413.00 C 498.64 427.33 498.58 441.68 498.59 456.02 C 498.56 458.40 499.06 460.50 500.79 462.22 C 503.01 464.54 506.03 464.36 509.00 464.44 C 518.55 464.34 528.10 464.44 537.65 464.39 C 534.59 468.61 531.42 472.75 528.16 476.84 C 521.77 476.89 515.39 476.92 509.00 476.83 C 506.00 476.93 503.18 476.65 500.82 478.84 C 498.53 480.78 498.63 483.23 498.56 486.00 C 498.63 495.78 498.56 505.57 498.62 515.35 C 498.61 516.04 498.59 516.73 498.57 517.41 C 494.32 521.43 491.36 526.22 487.83 530.82 C 481.29 539.52 474.85 548.29 468.14 556.85 C 456.42 556.86 444.71 556.90 433.00 556.82 C 430.00 556.92 427.32 556.73 425.11 559.11 C 423.07 561.03 423.44 563.43 423.31 565.99 C 423.39 578.66 423.33 591.33 423.34 604.00 C 423.41 607.67 422.89 611.01 424.26 614.45 C 424.59 614.82 424.92 615.18 425.27 615.52 C 421.34 618.18 419.61 621.93 416.64 625.61 C 408.71 635.99 401.22 646.76 392.92 656.85 C 386.73 651.10 383.79 644.50 383.91 636.00 C 383.88 461.33 383.92 286.67 383.90 112.00 C 383.98 105.85 383.30 98.47 385.77 92.75 C 388.88 85.01 396.02 79.12 404.20 77.51 Z" fill="#1f5368" />
<path d="M 428.58 173.59 C 547.50 173.64 666.45 173.43 785.36 173.72 C 785.38 196.73 785.35 219.74 785.37 242.75 C 761.25 242.72 737.12 242.77 713.00 242.73 C 705.98 242.58 699.02 243.39 692.00 243.16 C 604.20 243.17 516.40 243.14 428.61 243.18 C 428.56 219.98 428.60 196.79 428.58 173.59 Z" fill="#bac5bc" />
<path d="M 433.00 330.50 C 446.67 330.57 460.33 330.56 474.00 330.51 C 476.80 330.64 479.39 330.33 481.57 332.43 C 484.67 335.10 484.09 339.32 484.21 343.00 C 483.98 355.00 484.51 367.02 483.85 379.00 C 483.48 382.51 484.47 386.93 481.51 389.48 C 479.37 391.55 476.75 391.29 474.00 391.39 C 459.66 391.26 445.29 391.42 430.96 391.33 C 427.15 391.44 423.61 388.99 423.42 385.01 C 423.20 370.04 423.47 354.97 423.32 339.99 C 423.44 337.54 423.05 334.84 424.94 332.94 C 427.14 330.54 429.97 330.60 433.00 330.50 Z" fill="#4d9dbd" />
<path d="M 503.98 330.83 C 507.58 330.27 511.36 330.57 515.00 330.54 C 526.33 330.54 537.67 330.57 549.00 330.49 C 552.05 330.62 555.01 330.27 557.22 332.79 C 559.78 335.45 559.39 338.58 559.48 342.00 C 559.31 355.67 559.59 369.36 559.32 383.03 C 559.42 386.65 557.58 389.93 554.01 390.99 C 550.44 391.66 546.62 391.28 543.00 391.33 C 531.33 391.32 519.66 391.36 508.00 391.37 C 505.73 391.27 503.05 391.39 501.26 389.75 C 499.23 388.00 498.51 385.67 498.58 383.04 C 498.62 367.97 498.59 353.01 498.59 337.95 C 498.44 334.60 500.62 331.45 503.98 330.83 Z" fill="#4d9dbd" />
<path d="M 584.00 330.50 C 598.33 330.61 612.71 330.45 627.03 330.57 C 630.81 330.55 632.48 332.45 634.56 335.24 C 632.04 339.32 627.52 343.00 627.76 347.98 C 627.60 354.36 627.83 360.75 627.74 367.14 C 622.86 368.83 618.01 368.74 612.93 368.37 C 612.68 362.85 612.95 357.26 612.38 351.76 C 611.67 348.92 609.12 346.01 606.07 345.69 C 603.95 345.45 601.36 345.37 599.41 346.38 C 596.75 348.02 595.25 350.90 595.24 354.01 C 595.15 357.35 594.93 361.86 597.87 364.17 C 600.52 366.18 602.97 365.04 605.86 364.49 C 605.72 366.45 605.57 368.41 605.43 370.38 C 604.56 370.45 603.68 370.52 602.80 370.60 C 602.31 369.66 601.82 368.72 601.32 367.79 C 599.32 367.81 597.32 367.84 595.32 367.87 C 595.91 369.74 596.09 372.04 597.62 373.38 C 600.23 375.86 603.67 375.63 606.98 375.17 C 605.15 376.02 603.31 376.44 602.06 378.10 C 598.71 382.37 595.22 386.68 592.54 391.37 L 592.22 391.36 C 587.86 391.21 583.30 391.72 578.99 390.99 C 574.81 389.78 573.76 385.95 573.74 382.02 C 573.69 368.36 573.77 354.67 573.71 341.00 C 573.81 338.05 573.76 335.16 575.82 332.81 C 577.80 330.41 581.18 330.63 584.00 330.50 Z" fill="#4d9dbd" />
<path d="M 659.95 330.71 C 673.95 330.52 687.99 330.74 702.00 330.61 C 705.09 330.70 708.68 330.47 710.86 333.09 C 713.33 335.68 712.56 339.71 712.71 343.00 C 712.77 354.44 712.42 365.93 712.90 377.36 C 710.13 378.53 707.44 379.58 704.37 379.55 C 698.36 379.56 692.89 380.08 687.09 378.10 C 677.45 375.36 668.75 370.29 662.93 361.97 C 656.88 353.91 653.41 345.00 652.44 334.95 C 654.50 332.18 656.34 330.75 659.95 330.71 Z" fill="#4d9dbd" />
<path d="M 736.00 330.93 C 739.59 330.38 743.37 330.69 747.00 330.65 C 758.33 330.62 769.67 330.69 781.00 330.61 C 783.97 330.70 786.82 330.63 789.01 332.97 C 790.46 334.36 790.67 336.04 790.71 337.96 C 790.93 351.35 790.37 364.80 790.97 378.17 C 784.07 379.76 776.98 379.94 769.96 379.30 C 764.59 378.22 759.20 376.43 754.55 373.50 C 758.42 364.06 763.27 354.97 767.45 345.66 C 766.17 345.65 764.88 345.63 763.60 345.62 C 759.39 354.13 755.71 362.90 751.50 371.40 C 746.28 368.93 743.12 364.65 739.82 360.11 C 737.06 355.99 734.86 351.48 732.99 346.90 C 731.28 342.84 731.43 338.91 731.03 334.62 C 732.47 332.92 733.63 331.30 736.00 330.93 Z" fill="#4d9dbd" />
<path d="M 634.56 335.24 L 634.70 335.05 C 634.83 350.37 634.88 365.70 634.67 381.02 C 634.52 384.08 634.78 387.08 632.42 389.42 C 630.11 391.76 627.01 391.37 624.00 391.47 C 613.51 391.34 603.02 391.51 592.54 391.37 C 595.22 386.68 598.71 382.37 602.06 378.10 C 603.31 376.44 605.15 376.02 606.98 375.17 C 610.04 374.06 611.64 372.27 612.24 369.05 C 612.99 363.37 612.70 357.47 612.38 351.76 C 612.95 357.26 612.68 362.85 612.93 368.37 C 618.01 368.74 622.86 368.83 627.74 367.14 C 627.83 360.75 627.60 354.36 627.76 347.98 C 627.52 343.00 632.04 339.32 634.56 335.24 Z" fill="#0182a7" />
<path d="M 652.44 334.95 C 653.41 345.00 656.88 353.91 662.93 361.97 C 668.75 370.29 677.45 375.36 687.09 378.10 C 692.89 380.08 698.36 379.56 704.37 379.55 C 707.44 379.58 710.13 378.53 712.90 377.36 C 713.00 381.11 714.11 386.20 711.28 389.20 C 709.17 391.73 706.03 391.65 703.00 391.80 C 689.33 391.75 675.67 391.73 662.00 391.83 C 658.97 391.67 655.73 391.81 653.62 389.26 C 651.62 387.15 651.86 384.71 651.74 382.00 C 651.81 369.00 651.86 356.00 651.74 343.00 C 651.74 340.30 651.95 337.60 652.44 334.95 Z" fill="#1f5368" />
<path d="M 731.03 334.62 C 731.43 338.91 731.28 342.84 732.99 346.90 C 734.86 351.48 737.06 355.99 739.82 360.11 C 743.12 364.65 746.28 368.93 751.50 371.40 C 750.76 372.81 750.03 374.22 749.30 375.62 C 750.82 375.57 752.34 375.49 753.86 375.38 L 754.55 373.50 C 759.20 376.43 764.59 378.22 769.96 379.30 C 776.98 379.94 784.07 379.76 790.97 378.17 C 791.25 381.85 792.20 385.58 789.87 388.83 C 787.79 391.74 784.23 391.67 781.00 391.82 C 767.33 391.76 753.67 391.74 740.00 391.80 C 736.98 391.64 733.82 391.73 731.72 389.19 C 730.08 387.42 729.95 385.32 729.91 383.02 C 730.00 368.67 730.01 354.32 729.89 339.98 C 729.88 338.01 730.14 336.38 731.03 334.62 Z" fill="#1f5368" />
<path d="M 443.59 346.18 C 449.63 345.62 455.53 345.60 461.55 346.42 C 461.28 348.98 460.94 351.41 459.76 353.73 C 456.61 360.36 454.75 367.49 453.90 374.77 C 451.65 374.76 449.41 374.76 447.16 374.75 C 448.30 366.81 450.50 359.48 454.20 352.34 C 450.67 352.35 447.14 352.35 443.61 352.35 C 443.61 350.29 443.60 348.23 443.59 346.18 Z" fill="#ffffff" />
<path d="M 536.84 351.13 C 538.10 354.54 536.25 356.68 534.56 359.39 C 537.56 362.98 538.38 366.35 536.60 370.84 C 534.08 377.13 523.79 377.06 520.94 371.10 C 519.18 366.82 520.39 362.97 522.76 359.27 C 519.98 356.06 519.42 351.51 522.12 348.08 C 526.12 343.85 535.42 344.77 536.84 351.13 Z" fill="#ffffff" />
<path d="M 606.07 345.69 C 609.12 346.01 611.67 348.92 612.38 351.76 C 612.70 357.47 612.99 363.37 612.24 369.05 C 611.64 372.27 610.04 374.06 606.98 375.17 C 603.67 375.63 600.23 375.86 597.62 373.38 C 596.09 372.04 595.91 369.74 595.32 367.87 C 597.32 367.84 599.32 367.81 601.32 367.79 C 601.82 368.72 602.31 369.66 602.80 370.60 C 603.68 370.52 604.56 370.45 605.43 370.38 C 605.57 368.41 605.72 366.45 605.86 364.49 C 602.97 365.04 600.52 366.18 597.87 364.17 C 594.93 361.86 595.15 357.35 595.24 354.01 C 595.25 350.90 596.75 348.02 599.41 346.38 C 601.36 345.37 603.95 345.45 606.07 345.69 Z" fill="#ffffff" />
<path d="M 755.25 346.69 C 756.78 350.37 757.86 356.73 754.71 359.82 C 751.93 361.58 745.70 361.45 744.67 357.49 C 743.70 353.89 743.96 350.03 745.71 346.71 C 749.36 345.30 751.60 345.51 755.25 346.69 Z" fill="#ffffff" />
<path d="M 763.60 345.62 C 764.88 345.63 766.17 345.65 767.45 345.66 C 763.27 354.97 758.42 364.06 754.55 373.50 L 753.86 375.38 C 752.34 375.49 750.82 375.57 749.30 375.62 C 750.03 374.22 750.76 372.81 751.50 371.40 C 755.71 362.90 759.39 354.13 763.60 345.62 Z" fill="#ffffff" />
<path d="M 674.91 346.63 C 676.93 346.64 678.95 346.66 680.97 346.67 C 681.60 348.56 682.24 350.45 682.87 352.34 C 683.45 350.44 684.02 348.53 684.60 346.62 C 686.66 346.63 688.72 346.65 690.78 346.66 C 689.37 350.34 687.19 353.97 686.35 357.82 C 687.51 361.50 689.50 364.92 690.92 368.51 C 688.86 368.52 686.79 368.53 684.73 368.54 C 684.11 366.66 683.48 364.78 682.86 362.90 C 682.16 364.78 681.46 366.65 680.77 368.53 C 678.79 368.52 676.80 368.51 674.82 368.51 C 676.30 364.92 677.81 361.35 679.50 357.86 C 677.94 354.12 676.38 350.40 674.91 346.63 Z" fill="#ffffff" />
<path d="M 751.49 349.31 C 751.86 351.92 751.86 354.54 751.74 357.16 C 750.62 356.68 748.50 356.83 748.71 355.09 C 748.62 352.71 748.23 349.35 751.49 349.31 Z" fill="#4d9dbd" />
<path d="M 529.00 349.61 C 531.48 351.63 532.47 355.81 529.04 357.40 C 525.29 356.69 525.75 350.96 529.00 349.61 Z" fill="#bac5bc" />
<path d="M 602.49 351.29 C 603.49 351.28 604.50 351.31 605.50 351.38 C 605.71 354.15 605.68 356.91 605.62 359.68 C 604.52 359.71 603.43 359.75 602.33 359.78 C 602.25 357.00 602.10 354.05 602.49 351.29 Z" fill="#4d9dbd" />
<path d="M 764.39 360.47 C 767.27 360.15 770.65 359.89 772.12 362.98 C 773.18 365.68 772.99 369.02 772.41 371.80 C 771.44 376.10 764.79 376.43 761.99 373.94 C 760.09 371.73 760.23 367.87 760.46 365.15 C 760.62 362.90 762.11 360.88 764.39 360.47 Z" fill="#ffffff" />
<path d="M 527.59 362.32 C 528.54 362.30 529.49 362.32 530.44 362.39 C 530.66 364.62 531.25 367.35 530.45 369.49 C 529.59 370.17 528.64 370.41 527.64 370.84 C 526.46 367.87 525.79 365.24 527.59 362.32 Z" fill="#4d9dbd" />
<path d="M 767.56 364.22 C 767.64 366.69 767.68 369.15 767.63 371.62 C 766.90 371.57 766.16 371.52 765.43 371.46 C 765.40 369.19 765.40 366.91 765.54 364.64 C 766.21 364.49 766.89 364.36 767.56 364.22 Z" fill="#1f5368" />
<path d="M 583.88 403.36 C 597.60 403.43 611.31 403.41 625.03 403.36 C 627.81 403.43 630.36 403.44 632.51 405.47 C 635.09 407.80 634.69 410.83 634.82 414.00 C 634.69 428.01 634.96 442.03 634.62 456.04 C 634.56 458.46 634.27 460.68 632.40 462.43 C 630.15 464.58 626.90 464.40 624.00 464.49 C 610.34 464.42 596.66 464.46 582.99 464.47 C 580.44 464.35 577.59 464.31 575.83 462.17 C 573.81 459.77 573.72 456.99 573.64 454.00 C 573.71 441.54 573.74 429.07 573.66 416.61 L 573.67 415.43 C 577.47 411.90 580.47 407.76 583.22 403.38 L 583.88 403.36 Z" fill="#0182a7" />
<path d="M 657.59 403.92 C 660.64 403.37 663.90 403.60 667.00 403.58 C 679.01 403.60 691.02 403.62 703.03 403.56 C 705.52 403.61 707.81 403.64 709.93 405.13 C 711.84 406.51 712.61 408.66 712.64 410.95 C 712.90 424.07 712.35 437.25 712.90 450.36 C 706.49 453.40 699.89 452.61 692.95 452.34 C 683.90 450.97 674.92 447.10 668.12 440.91 C 659.19 431.98 653.49 420.50 652.44 407.85 C 653.95 406.12 655.21 404.44 657.59 403.92 Z" fill="#4d9dbd" />
<path d="M 738.00 403.61 C 753.00 403.58 768.05 403.58 783.05 403.61 C 786.65 403.46 790.78 406.07 790.65 410.01 C 791.00 423.70 790.33 437.48 790.97 451.16 C 784.05 452.63 777.00 453.03 769.97 452.23 C 765.90 451.44 761.99 449.97 757.93 449.12 C 760.72 438.53 764.00 428.07 766.70 417.45 L 763.56 417.82 C 760.02 427.23 758.33 437.46 755.15 447.03 C 749.93 444.62 746.30 440.63 742.46 436.50 C 738.01 431.45 735.05 425.26 732.77 418.98 C 731.41 415.27 731.37 411.64 730.84 407.74 C 732.71 405.26 734.74 403.57 738.00 403.61 Z" fill="#4d9dbd" />
<path d="M 432.99 403.43 C 446.66 403.50 460.33 403.48 474.00 403.44 C 476.77 403.56 479.43 403.36 481.58 405.40 C 484.63 408.04 484.10 412.38 484.21 416.00 C 483.97 428.00 484.52 440.02 483.85 452.00 C 483.65 454.68 483.92 457.63 483.17 460.22 C 481.64 463.51 478.43 464.46 475.02 464.42 C 461.04 464.41 447.00 464.36 433.00 464.44 C 430.00 464.36 427.23 464.35 425.09 461.95 C 423.47 460.25 423.38 458.25 423.33 456.03 C 423.31 441.69 423.43 427.34 423.30 412.99 C 423.42 410.52 423.07 407.87 424.94 405.95 C 427.15 403.52 429.93 403.49 432.99 403.43 Z" fill="#4d9dbd" />
<path d="M 508.00 403.43 C 521.67 403.50 535.33 403.49 549.00 403.44 C 552.09 403.56 554.96 403.30 557.26 405.73 C 559.59 408.07 559.39 410.94 559.48 414.00 C 559.41 421.05 559.46 428.09 559.41 435.14 L 559.42 436.35 C 554.45 441.26 551.15 447.34 546.47 452.49 C 543.11 456.21 540.25 460.10 537.65 464.39 C 528.10 464.44 518.55 464.34 509.00 464.44 C 506.03 464.36 503.01 464.54 500.79 462.22 C 499.06 460.50 498.56 458.40 498.59 456.02 C 498.58 441.68 498.64 427.33 498.55 413.00 C 498.66 410.18 498.34 407.69 500.62 405.61 C 502.71 403.49 505.21 403.47 508.00 403.43 Z" fill="#4d9dbd" />
<path d="M 583.22 403.38 C 580.47 407.76 577.47 411.90 573.67 415.43 C 573.79 412.18 573.47 408.42 575.81 405.81 C 577.78 403.49 580.44 403.67 583.22 403.38 Z" fill="#4d9dbd" />
<path d="M 599.00 407.71 C 605.67 407.70 612.33 407.71 619.00 407.65 C 621.57 407.75 624.55 407.52 626.51 409.51 C 627.97 410.71 627.60 413.28 627.76 414.98 C 627.73 423.34 627.76 431.70 627.73 440.06 C 623.48 441.73 619.34 441.44 614.89 441.72 C 613.70 441.64 612.92 443.30 612.15 444.06 C 613.21 440.41 613.89 436.87 612.79 433.13 C 612.24 431.11 611.12 429.37 609.08 428.63 C 606.97 427.94 604.42 428.94 602.30 429.33 C 602.55 427.29 602.92 425.28 603.21 423.25 C 604.05 423.25 604.89 423.25 605.73 423.24 C 606.10 424.06 606.47 424.88 606.84 425.71 C 608.91 425.69 610.97 425.68 613.03 425.65 C 612.44 422.73 611.96 420.29 608.96 418.94 C 605.11 417.54 599.16 417.95 597.11 422.11 C 595.76 425.59 595.86 429.78 595.64 433.48 C 588.70 426.47 585.66 417.84 586.32 408.01 C 590.58 407.38 594.72 407.70 599.00 407.71 Z" fill="#4d9dbd" />
<path d="M 652.44 407.85 C 653.49 420.50 659.19 431.98 668.12 440.91 C 674.92 447.10 683.90 450.97 692.95 452.34 C 699.89 452.61 706.49 453.40 712.90 450.36 C 713.02 454.11 714.10 459.20 711.28 462.20 C 709.06 464.74 706.17 464.93 703.02 465.01 C 689.68 465.02 676.34 464.96 663.00 465.03 C 659.56 464.96 656.23 464.96 653.62 462.37 C 651.65 460.36 651.85 457.61 651.74 455.00 C 651.87 441.67 651.77 428.33 651.77 414.99 C 651.81 412.60 652.02 410.21 652.44 407.85 Z" fill="#1f5368" />
<path d="M 730.84 407.74 C 731.37 411.64 731.41 415.27 732.77 418.98 C 735.05 425.26 738.01 431.45 742.46 436.50 C 746.30 440.63 749.93 444.62 755.15 447.03 C 754.76 448.42 754.43 449.83 754.09 451.23 C 755.19 451.24 756.29 451.25 757.39 451.26 C 757.57 450.55 757.75 449.83 757.93 449.12 C 761.99 449.97 765.90 451.44 769.97 452.23 C 777.00 453.03 784.05 452.63 790.97 451.16 C 791.30 455.07 792.39 459.15 789.36 462.34 C 787.06 464.82 784.18 464.97 781.01 465.03 C 769.34 465.00 757.67 464.98 746.00 465.01 C 742.78 465.00 739.43 465.20 736.25 464.68 C 732.65 464.00 729.78 460.79 729.94 457.04 C 730.00 442.38 730.02 427.63 729.90 412.98 C 729.89 411.11 730.14 409.47 730.84 407.74 Z" fill="#1f5368" />
<path d="M 608.96 418.94 C 611.96 420.29 612.44 422.73 613.03 425.65 C 610.97 425.68 608.91 425.69 606.84 425.71 C 606.47 424.88 606.10 424.06 605.73 423.24 C 604.89 423.25 604.05 423.25 603.21 423.25 C 602.92 425.28 602.55 427.29 602.30 429.33 C 604.42 428.94 606.97 427.94 609.08 428.63 C 611.12 429.37 612.24 431.11 612.79 433.13 C 613.89 436.87 613.21 440.41 612.15 444.06 C 610.97 445.52 609.83 447.29 607.83 447.61 C 604.33 448.07 600.18 448.37 597.81 445.21 C 595.55 442.14 595.79 437.14 595.64 433.48 C 595.86 429.78 595.76 425.59 597.11 422.11 C 599.16 417.95 605.11 417.54 608.96 418.94 Z" fill="#ffffff" />
<path d="M 763.56 417.82 L 766.70 417.45 C 764.00 428.07 760.72 438.53 757.93 449.12 C 757.75 449.83 757.57 450.55 757.39 451.26 C 756.29 451.25 755.19 451.24 754.09 451.23 C 754.43 449.83 754.76 448.42 755.15 447.03 C 758.33 437.46 760.02 427.23 763.56 417.82 Z" fill="#ffffff" />
<path d="M 452.84 418.62 C 455.09 418.51 457.33 418.52 459.59 418.51 C 459.68 424.54 459.65 430.56 459.60 436.59 C 460.52 436.61 461.44 436.63 462.36 436.64 C 462.35 438.25 462.34 439.85 462.33 441.45 C 461.41 441.58 460.50 441.71 459.58 441.83 C 459.55 443.70 459.51 445.58 459.48 447.45 C 457.45 447.44 455.42 447.43 453.38 447.43 C 453.35 445.54 453.32 443.64 453.28 441.75 C 450.08 441.72 446.88 441.70 443.68 441.65 C 443.79 438.92 443.58 436.43 444.88 433.92 C 447.41 428.80 450.06 423.61 452.84 418.62 Z" fill="#ffffff" />
<path d="M 521.49 418.54 C 526.53 418.57 531.57 418.55 536.61 418.53 C 536.61 420.45 536.60 422.38 536.59 424.30 C 533.29 424.28 529.98 424.27 526.68 424.26 C 526.62 425.43 526.56 426.60 526.50 427.77 C 528.91 427.69 531.54 427.33 533.91 427.83 C 536.19 429.22 537.50 431.35 537.64 434.02 C 537.91 438.06 538.12 442.94 535.04 446.06 C 532.09 448.75 526.74 448.69 523.56 446.41 C 520.95 444.36 520.99 441.60 520.40 438.60 C 522.41 438.54 524.43 438.49 526.44 438.44 C 526.81 439.82 527.18 441.21 527.56 442.59 C 528.59 442.65 529.62 442.70 530.66 442.74 C 531.57 438.80 532.29 435.11 529.17 431.93 C 528.19 432.79 527.20 433.66 526.22 434.53 C 524.56 434.57 522.91 434.61 521.25 434.65 C 520.33 429.36 521.73 423.93 521.49 418.54 Z" fill="#ffffff" />
<path d="M 454.01 425.71 C 454.24 429.52 454.27 433.32 454.14 437.14 C 452.31 437.12 450.47 437.11 448.64 437.09 C 449.83 434.19 451.00 431.31 452.45 428.53 C 452.96 427.59 453.48 426.65 454.01 425.71 Z" fill="#bac5bc" />
<path d="M 605.35 433.15 L 605.64 434.00 C 605.45 435.57 605.24 437.13 605.01 438.70 C 604.30 437.18 603.89 435.59 603.40 433.99 C 603.98 433.60 604.70 433.40 605.35 433.15 Z" fill="#0182a7" />
<path d="M 676.23 433.54 C 680.09 433.27 683.98 433.50 687.85 433.45 C 687.85 435.48 687.85 437.51 687.86 439.54 C 683.95 439.46 680.04 439.44 676.13 439.45 C 676.12 437.49 676.07 435.50 676.23 433.54 Z" fill="#ffffff" />
<path d="M 603.40 433.99 C 603.89 435.59 604.30 437.18 605.01 438.70 C 605.24 437.13 605.45 435.57 605.64 434.00 C 607.09 437.30 607.23 440.48 605.32 443.61 C 604.42 443.15 603.53 442.69 602.63 442.24 C 602.41 439.32 601.89 436.71 603.40 433.99 Z" fill="#4d9dbd" />
<path d="M 559.42 436.35 C 559.55 443.24 559.68 450.18 559.30 457.06 C 559.09 460.57 556.71 463.81 553.08 464.26 C 547.98 464.75 542.78 464.30 537.65 464.39 C 540.25 460.10 543.11 456.21 546.47 452.49 C 551.15 447.34 554.45 441.26 559.42 436.35 Z" fill="#0182a7" />
<path d="M 432.99 476.85 C 446.66 476.90 460.34 476.89 474.00 476.83 C 476.90 476.96 479.78 476.81 481.94 479.07 C 484.51 481.61 484.13 485.68 484.22 489.00 C 483.96 501.00 484.52 513.03 483.87 525.01 C 483.43 528.36 484.54 533.30 481.63 535.64 C 480.08 537.33 478.25 537.64 476.05 537.64 C 461.76 537.67 447.30 537.64 432.99 537.69 C 430.11 537.58 427.58 537.86 425.42 535.59 C 423.33 533.77 423.35 531.59 423.32 529.03 C 423.34 514.68 423.41 500.34 423.31 485.99 C 423.42 483.41 423.11 481.08 425.13 479.13 C 427.32 476.83 430.05 476.97 432.99 476.85 Z" fill="#4d9dbd" />
<path d="M 509.00 476.83 C 515.39 476.92 521.77 476.89 528.16 476.84 C 527.36 478.29 526.62 479.77 525.88 481.26 C 532.92 481.38 539.96 481.17 547.00 481.34 C 550.28 481.25 552.72 483.71 552.57 487.00 C 552.68 495.85 552.67 504.72 552.56 513.58 C 545.09 515.69 537.16 514.95 529.79 512.78 C 532.25 509.77 535.75 507.23 536.77 503.37 C 537.92 499.62 536.64 494.88 532.79 493.26 C 529.27 491.84 524.04 492.41 521.71 495.72 C 520.13 497.68 520.27 500.46 519.93 502.86 C 521.89 502.84 523.84 502.83 525.79 502.80 C 526.42 500.75 526.13 497.43 529.13 497.52 C 531.05 498.53 530.84 500.45 530.34 502.24 C 529.19 505.23 526.24 507.70 524.16 510.09 C 519.67 506.32 516.11 502.40 513.34 497.20 C 508.41 503.24 503.54 509.32 498.62 515.35 C 498.56 505.57 498.63 495.78 498.56 486.00 C 498.63 483.23 498.53 480.78 500.82 478.84 C 503.18 476.65 506.00 476.93 509.00 476.83 Z" fill="#4d9dbd" />
<path d="M 528.16 476.84 C 536.11 476.67 544.11 476.71 552.06 476.80 C 556.44 476.79 559.73 480.68 559.52 484.96 C 559.57 498.63 559.56 512.33 559.49 526.00 C 559.35 529.34 559.77 532.77 557.39 535.45 C 555.38 537.74 552.82 537.64 550.01 537.73 C 536.01 537.69 522.00 537.70 508.00 537.72 C 506.28 537.67 504.42 537.71 502.76 537.23 C 500.39 536.12 498.67 533.64 498.59 530.99 C 498.33 526.48 498.54 521.93 498.57 517.41 C 498.59 516.73 498.61 516.04 498.62 515.35 C 503.54 509.32 508.41 503.24 513.34 497.20 C 516.11 502.40 519.67 506.32 524.16 510.09 C 521.13 513.58 519.95 517.13 519.52 521.70 C 525.43 521.71 531.33 521.80 537.23 521.65 C 537.27 519.88 537.31 518.10 537.36 516.32 C 534.05 515.77 530.77 515.69 527.42 515.78 C 528.21 514.77 528.98 513.77 529.79 512.78 C 537.16 514.95 545.09 515.69 552.56 513.58 C 552.67 504.72 552.68 495.85 552.57 487.00 C 552.72 483.71 550.28 481.25 547.00 481.34 C 539.96 481.17 532.92 481.38 525.88 481.26 C 526.62 479.77 527.36 478.29 528.16 476.84 Z" fill="#0182a7" />
<path d="M 581.97 476.77 C 595.96 476.69 610.00 476.82 624.00 476.71 C 627.23 476.81 630.46 476.59 632.87 479.13 C 635.08 481.36 634.72 485.10 634.83 488.00 C 634.69 501.68 634.95 515.37 634.64 529.04 C 634.62 531.74 634.16 534.17 632.08 536.07 C 630.37 537.86 628.29 537.55 626.03 537.70 C 611.68 537.73 597.34 537.67 583.00 537.72 C 580.51 537.58 577.98 537.84 576.11 535.89 C 573.76 533.41 573.70 530.22 573.64 527.00 C 573.73 516.00 573.68 505.00 573.70 494.00 C 573.76 490.08 573.31 485.93 574.07 482.07 C 575.20 478.38 578.21 476.71 581.97 476.77 Z" fill="#0182a7" />
<path d="M 656.44 477.63 C 671.96 476.27 687.44 476.82 703.00 476.68 C 706.27 476.69 709.97 477.18 711.77 480.28 C 713.47 483.67 713.24 488.28 713.28 492.00 C 713.06 503.69 713.66 515.36 712.78 527.00 C 712.32 535.37 713.53 543.67 712.77 552.00 C 712.74 556.04 713.53 559.96 713.03 564.01 C 712.16 570.05 713.73 575.92 712.85 581.97 C 713.07 592.14 713.11 602.44 712.39 612.60 C 711.49 615.72 708.35 618.00 705.02 617.63 C 688.86 617.57 672.69 617.72 656.53 617.53 C 655.16 616.15 653.79 614.78 652.40 613.42 C 652.20 572.29 652.41 531.14 652.31 490.00 C 652.33 487.24 652.10 484.33 652.63 481.61 C 653.39 479.99 654.81 478.39 656.44 477.63 Z" fill="#de5953" />
<path d="M 740.00 476.68 C 753.99 476.76 768.03 476.69 782.02 476.70 C 785.11 476.75 788.76 477.62 790.20 480.69 C 791.97 484.23 791.24 489.11 791.36 493.00 C 791.14 505.00 791.90 517.09 790.71 529.02 C 790.53 530.60 790.75 532.51 790.05 533.96 C 788.60 536.02 786.70 537.76 784.01 537.63 C 769.36 537.69 754.66 537.58 740.00 537.67 C 738.28 537.64 736.45 537.70 734.76 537.29 C 733.14 536.32 731.78 534.74 730.46 533.39 C 730.26 517.59 730.47 501.79 730.34 485.99 C 730.46 483.74 730.10 481.49 731.68 479.68 C 733.84 477.16 736.83 476.65 740.00 476.68 Z" fill="#de5953" />
<path d="M 586.43 481.46 C 597.93 481.07 609.51 481.42 621.03 481.28 C 624.16 481.22 627.77 482.21 627.66 486.00 C 627.87 495.22 627.71 504.47 627.68 513.69 C 622.82 514.97 617.96 514.78 612.98 514.79 C 612.84 513.15 612.76 511.38 612.23 509.81 C 611.41 508.45 609.95 507.44 608.78 506.37 C 611.24 503.97 613.06 501.64 612.01 497.97 C 610.29 491.82 601.23 490.76 597.42 495.45 C 596.01 497.02 595.80 499.62 595.36 501.61 C 597.36 501.65 599.35 501.68 601.34 501.73 C 601.84 500.18 602.30 498.61 602.78 497.05 C 603.67 497.54 604.54 498.05 605.39 498.58 C 605.56 500.14 605.46 501.78 605.44 503.36 C 603.82 503.80 602.21 504.25 600.59 504.71 C 600.55 506.00 600.51 507.29 600.47 508.58 C 602.10 509.00 603.72 509.42 605.35 509.82 C 605.54 510.86 605.72 511.90 605.90 512.94 C 600.25 510.59 595.23 507.38 591.74 502.26 C 587.76 496.24 585.57 488.67 586.43 481.46 Z" fill="#4d9dbd" />
<path d="M 769.52 494.46 C 772.19 497.06 771.58 500.01 771.89 503.42 C 769.81 503.30 767.73 503.08 765.65 502.92 C 765.25 501.47 764.99 499.87 764.32 498.50 C 763.34 496.88 761.88 498.20 760.45 498.37 C 759.71 504.49 759.26 510.48 760.53 516.58 C 761.87 516.66 763.20 516.72 764.54 516.79 C 764.96 514.69 765.28 512.58 765.47 510.44 C 767.82 510.48 770.16 510.51 772.51 510.55 C 771.93 514.10 771.91 518.40 768.77 520.81 C 764.90 523.43 758.58 523.16 755.27 519.69 C 753.30 517.79 753.29 514.55 752.96 512.01 C 752.60 507.13 752.18 501.44 753.87 496.77 C 756.31 491.11 765.42 490.41 769.52 494.46 Z" fill="#ffffff" />
<path d="M 452.57 492.48 C 454.15 492.48 455.73 492.49 457.31 492.50 C 457.37 502.29 457.27 511.94 456.75 521.72 C 454.62 521.70 452.50 521.69 450.38 521.68 C 450.27 515.37 450.51 509.02 450.17 502.73 C 449.11 501.15 446.18 501.93 444.48 501.68 C 444.46 500.32 444.44 498.96 444.42 497.60 C 446.26 497.12 448.26 496.78 449.97 495.93 C 451.06 495.03 451.77 493.63 452.57 492.48 Z" fill="#ffffff" />
<path d="M 532.79 493.26 C 536.64 494.88 537.92 499.62 536.77 503.37 C 535.75 507.23 532.25 509.77 529.79 512.78 C 528.98 513.77 528.21 514.77 527.42 515.78 C 530.77 515.69 534.05 515.77 537.36 516.32 C 537.31 518.10 537.27 519.88 537.23 521.65 C 531.33 521.80 525.43 521.71 519.52 521.70 C 519.95 517.13 521.13 513.58 524.16 510.09 C 526.24 507.70 529.19 505.23 530.34 502.24 C 530.84 500.45 531.05 498.53 529.13 497.52 C 526.13 497.43 526.42 500.75 525.79 502.80 C 523.84 502.83 521.89 502.84 519.93 502.86 C 520.27 500.46 520.13 497.68 521.71 495.72 C 524.04 492.41 529.27 491.84 532.79 493.26 Z" fill="#ffffff" />
<path d="M 612.01 497.97 C 613.06 501.64 611.24 503.97 608.78 506.37 C 609.95 507.44 611.41 508.45 612.23 509.81 C 612.76 511.38 612.84 513.15 612.98 514.79 C 612.45 517.43 611.62 519.78 609.18 521.22 C 605.40 523.29 599.45 522.96 596.89 519.06 C 595.35 517.13 595.48 514.61 595.13 512.27 C 597.21 512.25 599.30 512.23 601.38 512.20 C 601.71 513.76 602.04 515.32 602.40 516.87 C 603.44 516.80 604.48 516.73 605.53 516.65 C 605.67 515.41 605.80 514.18 605.90 512.94 C 605.72 511.90 605.54 510.86 605.35 509.82 C 603.72 509.42 602.10 509.00 600.47 508.58 C 600.51 507.29 600.55 506.00 600.59 504.71 C 602.21 504.25 603.82 503.80 605.44 503.36 C 605.46 501.78 605.56 500.14 605.39 498.58 C 604.54 498.05 603.67 497.54 602.78 497.05 C 602.30 498.61 601.84 500.18 601.34 501.73 C 599.35 501.68 597.36 501.65 595.36 501.61 C 595.80 499.62 596.01 497.02 597.42 495.45 C 601.23 490.76 610.29 491.82 612.01 497.97 Z" fill="#ffffff" />
<path d="M 677.59 533.66 C 679.07 533.74 680.55 533.85 682.02 534.00 L 683.39 534.41 C 683.31 537.15 683.28 539.90 683.27 542.64 C 686.08 542.63 688.88 542.62 691.68 542.60 C 691.70 544.49 691.73 546.38 691.75 548.26 C 688.92 548.26 686.08 548.26 683.25 548.24 C 683.27 551.03 683.30 553.82 683.41 556.61 C 681.26 557.21 679.65 557.18 677.45 556.86 C 677.55 554.01 677.59 551.16 677.62 548.31 C 674.83 548.28 672.04 548.19 669.26 548.06 C 669.28 546.25 669.31 544.43 669.35 542.62 C 672.09 542.63 674.83 542.63 677.57 542.64 C 677.57 539.65 677.58 536.66 677.59 533.66 Z" fill="#ffffff" />
<path d="M 433.00 556.82 C 444.71 556.90 456.42 556.86 468.14 556.85 C 467.37 558.12 466.65 559.42 465.93 560.72 C 468.84 561.11 472.09 561.03 474.85 562.08 C 477.65 563.87 477.37 567.08 477.49 570.00 C 477.40 577.75 477.50 585.50 477.42 593.26 C 472.61 595.05 467.82 594.77 462.79 594.56 C 462.12 595.81 461.45 597.05 460.84 598.32 C 461.15 592.74 461.77 586.61 460.70 581.11 C 460.09 576.12 453.54 573.46 449.22 575.23 C 446.65 576.02 444.88 577.94 443.81 580.35 C 443.29 583.78 443.46 587.35 442.71 590.73 C 441.39 593.21 439.14 595.24 437.43 597.47 C 433.01 603.10 428.91 608.98 424.26 614.45 C 422.89 611.01 423.41 607.67 423.34 604.00 C 423.33 591.33 423.39 578.66 423.31 565.99 C 423.44 563.43 423.07 561.03 425.11 559.11 C 427.32 556.73 430.00 556.92 433.00 556.82 Z" fill="#4d9dbd" />
<path d="M 468.14 556.85 C 472.29 556.91 479.02 555.47 482.03 558.97 C 484.68 561.35 484.20 565.77 484.30 569.00 C 483.98 582.97 484.75 597.03 483.69 610.96 C 483.78 614.47 480.53 617.77 477.00 617.62 C 462.01 617.74 446.97 617.63 431.97 617.69 C 429.11 617.70 427.52 617.40 425.27 615.52 C 424.92 615.18 424.59 614.82 424.26 614.45 C 428.91 608.98 433.01 603.10 437.43 597.47 C 439.14 595.24 441.39 593.21 442.71 590.73 C 443.46 587.35 443.29 583.78 443.81 580.35 C 443.38 585.22 443.47 590.14 443.66 595.01 C 443.90 597.77 444.01 600.81 446.31 602.71 C 450.78 606.55 460.14 605.14 460.84 598.32 C 461.45 597.05 462.12 595.81 462.79 594.56 C 467.82 594.77 472.61 595.05 477.42 593.26 C 477.50 585.50 477.40 577.75 477.49 570.00 C 477.37 567.08 477.65 563.87 474.85 562.08 C 472.09 561.03 468.84 561.11 465.93 560.72 C 466.65 559.42 467.37 558.12 468.14 556.85 Z" fill="#0182a7" />
<path d="M 506.98 556.72 C 519.01 556.73 530.98 556.74 543.00 556.74 C 547.22 557.05 553.97 555.51 557.13 558.86 C 559.64 561.12 559.54 563.87 559.58 567.00 C 559.45 581.00 559.67 595.02 559.42 609.02 C 559.44 611.93 558.60 614.45 556.27 616.29 C 554.48 617.81 552.22 617.58 550.01 617.70 C 536.00 617.66 521.99 617.65 507.98 617.70 C 505.15 617.61 502.60 617.77 500.50 615.52 C 498.39 613.35 498.54 610.83 498.46 608.01 C 498.50 594.00 498.55 580.00 498.45 565.99 C 498.58 563.46 498.24 561.15 500.17 559.19 C 501.99 557.15 504.36 556.72 506.98 556.72 Z" fill="#0182a7" />
<path d="M 581.98 556.75 C 595.98 556.68 610.00 556.80 624.00 556.70 C 627.30 556.79 630.42 556.50 632.90 559.09 C 634.94 561.16 634.70 564.31 634.82 566.99 C 634.71 581.01 634.95 595.03 634.64 609.04 C 634.62 611.72 634.15 614.17 632.06 616.04 C 630.20 617.92 627.42 617.54 625.00 617.69 C 611.00 617.66 596.98 617.68 582.97 617.68 C 580.54 617.57 578.01 617.68 576.14 615.85 C 573.80 613.44 573.73 610.17 573.65 607.00 C 573.71 596.00 573.69 585.00 573.69 574.00 C 573.76 570.07 573.33 565.92 574.06 562.05 C 575.16 558.34 578.21 556.64 581.98 556.75 Z" fill="#0182a7" />
<path d="M 738.98 556.68 C 753.71 556.71 768.36 556.68 783.05 556.69 C 786.02 556.65 788.88 557.98 790.21 560.72 C 791.88 563.96 791.28 568.43 791.36 572.00 C 791.12 584.33 791.92 596.76 790.71 609.02 C 790.50 611.65 790.91 613.78 788.64 615.63 C 786.15 618.24 783.26 617.48 780.00 617.65 C 765.65 617.51 751.26 617.75 736.93 617.55 C 733.95 617.71 732.39 615.18 730.46 613.36 C 730.26 597.58 730.47 581.78 730.34 565.99 C 730.48 563.97 730.04 561.18 731.63 559.65 C 733.52 557.47 736.15 556.64 738.98 556.68 Z" fill="#de5953" />
<path d="M 510.99 561.46 C 516.97 561.02 523.01 561.40 529.00 561.29 C 535.28 561.42 541.60 561.07 547.87 561.39 C 550.73 561.59 552.79 564.15 552.58 567.00 C 552.68 575.85 552.68 584.71 552.55 593.57 C 547.11 595.07 541.47 594.99 535.91 594.18 C 525.42 592.29 516.28 585.41 512.77 575.18 C 511.49 570.96 509.97 565.84 510.99 561.46 Z" fill="#4d9dbd" />
<path d="M 586.41 561.41 C 597.25 561.06 608.15 561.47 619.00 561.24 C 621.38 561.38 624.50 560.80 626.26 562.72 C 627.93 564.01 627.58 566.09 627.75 567.97 C 627.70 576.54 627.81 585.10 627.68 593.66 C 623.02 594.87 618.36 594.78 613.58 594.72 C 613.56 593.69 613.54 592.66 613.52 591.63 C 609.61 591.66 605.71 591.66 601.81 591.60 C 598.46 588.26 594.74 588.72 590.40 588.51 C 590.48 586.05 590.73 583.52 590.45 581.06 C 590.04 578.93 588.95 576.89 588.18 574.86 C 586.41 570.59 585.97 565.99 586.41 561.41 Z" fill="#4d9dbd" />
<path d="M 449.22 575.23 C 453.54 573.46 460.09 576.12 460.70 581.11 C 461.77 586.61 461.15 592.74 460.84 598.32 C 460.14 605.14 450.78 606.55 446.31 602.71 C 444.01 600.81 443.90 597.77 443.66 595.01 C 443.47 590.14 443.38 585.22 443.81 580.35 C 444.88 577.94 446.65 576.02 449.22 575.23 Z" fill="#ffffff" />
<path d="M 744.46 575.38 C 747.11 575.09 749.82 575.22 752.48 575.23 C 754.75 584.75 756.45 594.40 758.57 603.96 C 756.63 604.06 754.74 604.21 752.80 604.13 C 751.18 603.18 751.49 600.27 751.04 598.60 C 749.27 598.58 747.50 598.57 745.74 598.56 C 745.39 600.40 745.04 602.23 744.69 604.06 C 742.51 604.10 740.34 604.14 738.17 604.19 C 740.23 594.61 741.93 584.85 744.46 575.38 Z" fill="#ffffff" />
<path d="M 766.14 575.01 C 769.78 573.91 775.16 573.99 777.70 577.31 C 779.82 579.76 779.54 582.43 779.89 585.45 C 777.75 585.47 775.61 585.48 773.48 585.49 C 773.05 583.82 772.62 582.15 772.20 580.47 C 771.00 580.43 769.80 580.38 768.61 580.33 C 767.31 585.23 767.55 589.98 767.71 595.01 C 768.02 597.33 768.05 599.92 771.20 599.45 C 773.32 598.38 773.01 594.73 773.48 592.68 C 775.56 592.69 777.64 592.69 779.73 592.69 C 779.57 596.01 780.06 599.13 777.88 601.89 C 775.48 604.98 771.58 605.03 768.01 604.61 C 765.07 604.22 762.50 602.51 761.60 599.59 C 760.18 594.62 760.46 589.06 760.61 583.94 C 760.84 580.24 762.30 576.25 766.14 575.01 Z" fill="#ffffff" />
<path d="M 453.61 580.45 C 454.58 581.58 454.49 583.56 454.62 584.98 C 454.68 589.20 455.03 593.65 454.25 597.81 C 454.20 595.75 453.91 593.71 453.45 591.70 C 452.64 591.54 451.83 591.39 451.01 591.25 C 450.72 593.53 450.57 595.82 450.53 598.11 C 449.86 592.26 450.07 586.28 450.73 580.44 C 451.69 580.39 452.65 580.39 453.61 580.45 Z" fill="#4d9dbd" />
<path d="M 748.15 581.58 C 749.19 585.50 749.72 589.34 749.95 593.38 C 748.77 593.38 747.60 593.37 746.42 593.36 C 747.12 589.45 747.65 585.52 748.15 581.58 Z" fill="#de5953" />
<path d="M 591.21 582.91 C 598.64 582.67 606.08 582.81 613.52 582.79 C 613.54 584.45 613.57 586.11 613.59 587.76 C 606.08 588.26 598.63 587.80 591.12 587.79 C 591.15 586.17 591.18 584.54 591.21 582.91 Z" fill="#ffffff" />
<path d="M 451.01 591.25 C 451.83 591.39 452.64 591.54 453.45 591.70 C 453.91 593.71 454.20 595.75 454.25 597.81 L 453.28 600.02 C 452.28 599.47 451.36 598.84 450.53 598.11 C 450.57 595.82 450.72 593.53 451.01 591.25 Z" fill="#0182a7" />
<path d="M 590.98 591.60 C 594.59 591.52 598.20 591.60 601.81 591.60 C 605.71 591.66 609.61 591.66 613.52 591.63 C 613.54 592.66 613.56 593.69 613.58 594.72 L 613.63 596.80 C 606.08 596.81 598.52 596.81 590.97 596.81 C 590.96 595.08 590.92 593.33 590.98 591.60 Z" fill="#ffffff" />
<path d="M 525.77 594.56 C 528.06 594.55 530.36 594.53 532.65 594.51 C 532.65 596.83 532.64 599.16 532.63 601.48 C 530.35 601.44 528.06 601.40 525.78 601.37 C 525.78 599.10 525.78 596.83 525.77 594.56 Z" fill="#ffffff" />
</svg>